<svg width="16" height="16" viewBox="0 0 16 16" fill="none" xmlns="http://www.w3.org/2000/svg">
<path d="M2.12947 8.79678C1.57038 7.85428 1.37458 6.7401 1.57884 5.66346C1.7831 4.58681 2.37338 3.62176 3.23882 2.94953C4.10426 2.27729 5.18534 1.94411 6.27905 2.01256C7.37277 2.081 8.40387 2.54635 9.17876 3.32123C9.95365 4.09612 10.419 5.12722 10.4875 6.22093C10.5559 7.31465 10.2227 8.39573 9.55049 9.26117C8.87826 10.1266 7.91322 10.7169 6.83657 10.9212C5.75993 11.1254 4.64574 10.9296 3.70324 10.3705L3.70325 10.3705L2.14904 10.8146C2.08474 10.8329 2.01669 10.8338 1.95195 10.817C1.88722 10.8002 1.82814 10.7664 1.78085 10.7192C1.73357 10.6719 1.69978 10.6128 1.68301 10.5481C1.66623 10.4833 1.66707 10.4153 1.68545 10.351L2.12951 8.79676L2.12947 8.79678Z" stroke="#A1A2A3" stroke-linecap="round" stroke-linejoin="round"/>
<path d="M5.75366 10.9933C5.97488 11.6213 6.33261 12.1924 6.80111 12.6655C7.2696 13.1386 7.83719 13.502 8.46299 13.7293C9.08878 13.9567 9.75722 14.0425 10.4201 13.9804C11.0831 13.9184 11.724 13.7101 12.2967 13.3706L12.2967 13.3705L13.8509 13.8146C13.9152 13.8329 13.9833 13.8338 14.048 13.817C14.1128 13.8002 14.1718 13.7665 14.2191 13.7192C14.2664 13.6719 14.3002 13.6128 14.317 13.5481C14.3337 13.4833 14.3329 13.4153 14.3145 13.351L13.8705 11.7968L13.8705 11.7968C14.2651 11.1314 14.4815 10.3755 14.4988 9.60213C14.5162 8.82873 14.334 8.06391 13.9697 7.38146C13.6054 6.699 13.0714 6.12195 12.4192 5.70597C11.7669 5.28999 11.0185 5.04913 10.2461 5.00662" stroke="#A1A2A3" stroke-linecap="round" stroke-linejoin="round"/>
</svg>
