<svg width="252" height="190" viewBox="0 0 252 190" fill="none" xmlns="http://www.w3.org/2000/svg">
<g clip-path="url(#clip0_78_21840)">
<path d="M126 189.994C195.588 189.994 252 186.709 252 182.657C252 178.605 195.588 175.32 126 175.32C56.4121 175.32 0 178.605 0 182.657C0 186.709 56.4121 189.994 126 189.994Z" fill="#F5F5F5"/>
<path d="M218.532 160.083C218.532 160.083 221.691 167.666 224.381 169.481C226.723 167.059 229.757 165.418 233.07 164.782" stroke="#263238" stroke-width="0.74" stroke-linecap="round" stroke-linejoin="round"/>
<path d="M226.695 163.7C226.695 163.7 225.135 158.819 221.834 158.832C218.533 158.845 219.072 156.24 218.071 155.469C217.07 154.697 215.374 157.821 217.714 160.174C220.053 162.527 218.364 161.943 219.624 164.289C220.885 166.636 227.721 167.796 226.695 163.7Z" fill="#407BFF"/>
<path opacity="0.2" d="M226.695 163.7C226.695 163.7 225.135 158.819 221.834 158.832C218.533 158.845 219.072 156.24 218.071 155.469C217.07 154.697 215.374 157.821 217.714 160.174C220.053 162.527 218.364 161.943 219.624 164.289C220.885 166.636 227.721 167.796 226.695 163.7Z" fill="white"/>
<path d="M228.638 166.817C226.233 160.829 221.775 155.657 221.977 148.89C222.113 144.392 223.835 140.037 225.226 135.812C226.526 131.871 227.955 127.911 228.69 123.808C229.372 119.998 229.294 116.031 227.39 112.564" stroke="#263238" stroke-width="0.74" stroke-linecap="round" stroke-linejoin="round"/>
<path d="M229.047 115.785C229.047 115.785 230.503 107.418 224.498 108.131C218.494 108.844 226.181 115.364 229.047 115.785Z" fill="#407BFF"/>
<path d="M224.752 122.687C224.752 122.687 221.899 115.694 217.87 117.846C213.841 119.998 220.534 123.446 224.752 122.687Z" fill="#407BFF"/>
<path d="M232.062 122.26C232.062 122.26 230.561 116.556 235.058 115.778C239.555 115.001 238.294 120.387 232.062 122.26Z" fill="#407BFF"/>
<path d="M230.802 134.515C230.802 134.515 236.066 128.242 238.834 131.923C241.602 135.604 234.98 137.445 230.802 134.515Z" fill="#407BFF"/>
<path d="M219.949 135.137C219.949 135.137 217.493 126.362 213.015 129.888C208.538 133.414 215.823 136.661 219.949 135.137Z" fill="#407BFF"/>
<path d="M217.538 148.573C217.538 148.573 219.813 139.007 213.256 141.009C206.699 143.012 212.502 147.076 217.538 148.573Z" fill="#407BFF"/>
<path d="M228.313 150.284C228.313 150.284 232.992 142.792 237.638 144.269C242.285 145.747 239.718 152.883 228.313 150.284Z" fill="#407BFF"/>
<g opacity="0.2">
<path d="M229.047 115.785C229.047 115.785 230.503 107.418 224.498 108.131C218.494 108.844 226.181 115.364 229.047 115.785Z" fill="white"/>
<path d="M224.752 122.687C224.752 122.687 221.899 115.694 217.87 117.846C213.841 119.998 220.534 123.446 224.752 122.687Z" fill="white"/>
<path d="M232.062 122.26C232.062 122.26 230.561 116.556 235.058 115.778C239.555 115.001 238.294 120.387 232.062 122.26Z" fill="white"/>
<path d="M230.802 134.515C230.802 134.515 236.066 128.242 238.834 131.923C241.602 135.604 234.98 137.445 230.802 134.515Z" fill="white"/>
<path d="M219.949 135.137C219.949 135.137 217.493 126.362 213.015 129.888C208.538 133.414 215.823 136.661 219.949 135.137Z" fill="white"/>
<path d="M217.538 148.573C217.538 148.573 219.813 139.007 213.256 141.009C206.699 143.012 212.502 147.076 217.538 148.573Z" fill="white"/>
<path d="M228.313 150.284C228.313 150.284 232.992 142.792 237.638 144.269C242.285 145.747 239.718 152.883 228.313 150.284Z" fill="white"/>
</g>
<path d="M233.297 120.14C233.297 120.14 231.289 124.333 228.053 126.822C228.053 126.822 225.057 122.681 223.075 121.858" stroke="#263238" stroke-width="0.74" stroke-linecap="round" stroke-linejoin="round"/>
<path d="M235.377 133.297C235.377 133.297 228.794 134.055 224.18 138.728C224.18 138.728 220.579 134.282 216.472 132.616" stroke="#263238" stroke-width="0.74" stroke-linecap="round" stroke-linejoin="round"/>
<path d="M214.932 144.587C214.932 144.587 218.831 151.554 222.854 153.9C222.854 153.9 229.658 148.502 235.11 147.588" stroke="#263238" stroke-width="0.74" stroke-linecap="round" stroke-linejoin="round"/>
<path d="M225.076 164.912C225.076 164.912 222.808 161.866 225.726 160.083C228.644 158.301 229.346 159.571 231.166 158.301C232.985 157.031 234.246 154.134 234.662 155.922C235.078 157.711 232.966 158.865 233.778 159.649C234.59 160.433 229.041 166.13 225.076 164.912Z" fill="#407BFF"/>
<path d="M224.849 163.24C224.849 163.24 222.081 161.295 220.04 161.684C218 162.073 216.297 160.258 216.141 161.846C215.985 163.434 219.65 166.953 224.849 163.24Z" fill="#407BFF"/>
<path d="M212.463 162.365L213.262 169.254L213.373 170.168L213.704 173.052L213.945 175.094L214.101 176.422L214.874 183.124H234.883L235.663 176.422L235.819 175.094L236.059 173.052L236.39 170.168L236.494 169.254L237.294 162.365H212.463Z" fill="#263238"/>
<path opacity="0.4" d="M213.704 173.052L213.945 175.093H235.819L236.059 173.052H213.704Z" fill="black"/>
<path opacity="0.4" d="M214.101 176.422L214.874 183.124H234.883L235.663 176.422H214.101Z" fill="black"/>
<path opacity="0.4" d="M213.262 169.254L213.373 170.168H236.39L236.494 169.254H213.262Z" fill="black"/>
<path d="M43.1764 82.9322H40.0051V183.124H43.1764V82.9322Z" fill="#263238"/>
<path opacity="0.5" d="M43.1764 82.9257H40.0051V183.124H43.1764V82.9257Z" fill="white"/>
<path opacity="0.2" d="M43.1764 83.5609V107.262L40.0051 106.122V83.5609H43.1764Z" fill="black"/>
<path d="M58.4674 67.546H24.7075V99.5821H58.4674V67.546Z" fill="#407BFF"/>
<path d="M56.7649 69.3478V97.7998H26.4167V69.3478H56.7649ZM57.4537 68.6996H25.7344V98.5127H57.4537V68.6996Z" fill="white"/>
<path d="M44.8204 84.2349H38.3609V90.3854H34.8257L41.5907 96.3092L48.3556 90.3854H44.8204V84.2349Z" fill="white"/>
<path d="M37.1847 74.4743H38.127V76.2696C37.6036 76.6414 36.9759 76.8387 36.3334 76.8334C36.0176 76.8571 35.7003 76.8156 35.4014 76.7114C35.1025 76.6071 34.8284 76.4425 34.5962 76.2277C34.364 76.013 34.1788 75.7527 34.0521 75.4633C33.9255 75.1738 33.8601 74.8614 33.8601 74.5456C33.8601 74.2298 33.9255 73.9174 34.0521 73.6279C34.1788 73.3385 34.364 73.0782 34.5962 72.8634C34.8284 72.6487 35.1025 72.484 35.4014 72.3798C35.7003 72.2756 36.0176 72.234 36.3334 72.2578C36.6795 72.2413 37.025 72.3014 37.3452 72.4336C37.6654 72.5658 37.9523 72.7669 38.1855 73.0225L37.5356 73.6318C37.3916 73.4704 37.2141 73.3422 37.0155 73.2561C36.8169 73.1699 36.6019 73.1278 36.3854 73.1327C36.1908 73.1196 35.9956 73.1465 35.8119 73.2117C35.6282 73.2769 35.4599 73.3791 35.3175 73.5119C35.175 73.6446 35.0615 73.8052 34.9838 73.9836C34.9061 74.162 34.8661 74.3544 34.8661 74.5488C34.8661 74.7433 34.9061 74.9357 34.9838 75.1141C35.0615 75.2925 35.175 75.453 35.3175 75.5858C35.4599 75.7186 35.6282 75.8208 35.8119 75.886C35.9956 75.9512 36.1908 75.9781 36.3854 75.965C36.6621 75.97 36.9354 75.903 37.1782 75.7705L37.1847 74.4743Z" fill="white"/>
<path d="M39.0757 72.3356H40.1025V76.7622H39.0757V72.3356Z" fill="white"/>
<path d="M45.3923 72.3356L43.4428 76.7622H42.455L40.5444 72.3356H41.6492L43.0009 75.4983L44.3721 72.3356H45.3923Z" fill="white"/>
<path d="M49.1876 75.9391V76.7622H45.7563V72.3356H49.1096V73.1587H46.7896V74.1179H48.8496V74.915H46.7896V75.9391H49.1876Z" fill="white"/>
<path d="M34.7218 81.6619H32.6618L32.2654 82.6146H31.1931L33.1427 78.188H34.1564L36.106 82.6146H35.0922L34.7218 81.6619ZM34.3969 80.8841L33.695 79.1926L32.9932 80.8841H34.3969Z" fill="white"/>
<path d="M43.1114 78.1686L41.6622 82.5952H40.5575L39.5827 79.5944L38.5754 82.5952H37.4837L36.0215 78.1686H37.0872L38.088 81.2795L39.1343 78.1686H40.0831L41.0968 81.3054L42.1301 78.1686H43.1114Z" fill="white"/>
<path d="M46.458 81.6619H44.398L44.0016 82.6146H42.9553L44.9049 78.188H45.9446L47.8942 82.6146H46.8479L46.458 81.6619ZM46.1331 80.8841L45.4313 79.1926L44.7294 80.8841H46.1331Z" fill="white"/>
<path d="M50.2467 81.0138V82.5822H49.2199V81.0138L47.4978 78.1686H48.5896L49.7723 80.1129L50.9615 78.1686H51.9883L50.2467 81.0138Z" fill="white"/>
<path d="M66.5643 130.471C64.3483 130.698 56.979 131.255 54.4251 128.384C53.994 127.915 53.6939 127.341 53.5548 126.72C53.4157 126.099 53.4424 125.453 53.6322 124.845C54.1846 122.648 55.8287 121.56 58.1812 121.56C61.203 121.56 65.2191 123.621 67.2791 126.096C68.6503 123.724 71.3277 120.127 75.3568 120.536C78.2812 120.827 80.4907 123.05 80.2827 125.487C80.1722 126.783 78.9375 130.925 67.9355 130.419L67.1167 132.577L66.5643 130.471ZM58.1162 123.99C56.914 123.99 56.2576 124.353 55.9782 125.468C55.7832 126.252 55.9782 126.505 56.2251 126.764C57.5898 128.3 62.4377 128.514 65.778 128.222C64.5888 126.278 60.8261 124.003 58.1487 124.003L58.1162 123.99ZM68.8843 128.015C75.6752 128.183 77.6963 126.356 77.7938 125.28C77.8717 124.321 76.7215 123.134 75.0644 122.966C74.9367 122.96 74.8087 122.96 74.681 122.966C71.7956 122.959 69.7486 126.343 68.9168 128.028L68.8843 128.015Z" fill="#263238"/>
<g opacity="0.7">
<path d="M66.5643 130.471C64.3483 130.698 56.979 131.255 54.4251 128.384C53.994 127.915 53.6939 127.341 53.5548 126.72C53.4157 126.099 53.4424 125.453 53.6322 124.845C54.1846 122.648 55.8287 121.56 58.1812 121.56C61.203 121.56 65.2191 123.621 67.2791 126.096C68.6503 123.724 71.3277 120.127 75.3568 120.536C78.2812 120.827 80.4907 123.05 80.2827 125.487C80.1722 126.783 78.9375 130.925 67.9355 130.419L67.1167 132.577L66.5643 130.471ZM58.1162 123.99C56.914 123.99 56.2576 124.353 55.9782 125.468C55.7832 126.252 55.9782 126.505 56.2251 126.764C57.5898 128.3 62.4377 128.514 65.778 128.222C64.5888 126.278 60.8261 124.003 58.1487 124.003L58.1162 123.99ZM68.8843 128.015C75.6752 128.183 77.6963 126.356 77.7938 125.28C77.8717 124.321 76.7215 123.134 75.0644 122.966C74.9367 122.96 74.8087 122.96 74.681 122.966C71.7956 122.959 69.7486 126.343 68.9168 128.028L68.8843 128.015Z" fill="white"/>
</g>
<path d="M43.5011 161.827H91.1938V129.155H43.5011L43.5011 161.827Z" fill="#407BFF"/>
<path opacity="0.2" d="M43.5011 161.827H91.1938V129.155H43.5011L43.5011 161.827Z" fill="white"/>
<path opacity="0.2" d="M43.5011 161.827H91.1938V140.445H43.5011V161.827Z" fill="black"/>
<path d="M55.5363 161.827H59.4094L59.4094 129.155H55.5363L55.5363 161.827Z" fill="#263238"/>
<path opacity="0.2" d="M72.2441 161.827H91.1938V129.155H72.2441V161.827Z" fill="black"/>
<path d="M81.6475 161.827H84.4939V129.155H81.6475V161.827Z" fill="#263238"/>
<path opacity="0.8" d="M55.5363 161.827H59.4094L59.4094 129.155H55.5363L55.5363 161.827Z" fill="white"/>
<path opacity="0.7" d="M81.6475 161.827H84.4939V129.155H81.6475V161.827Z" fill="white"/>
<path d="M44.6644 144.82C43.0527 144.237 28.8989 138.987 28.1061 134.003C27.9177 132.856 28.405 131.819 29.5488 130.938C30.1035 130.48 30.7592 130.161 31.4619 130.005C32.1646 129.85 32.8942 129.863 33.5909 130.043C36.7622 130.808 39.875 134.638 42.1039 138.093C40.9082 133.919 39.9789 128.825 41.6166 126.466C41.9537 125.992 42.4097 125.615 42.939 125.373C43.4682 125.131 44.052 125.031 44.6319 125.085C45.2395 125.075 45.8396 125.219 46.3762 125.504C46.9127 125.788 47.3679 126.204 47.6992 126.712C49.4343 129.363 48.4205 134.852 47.2443 139.026C49.8437 134.962 53.4504 130.082 55.9783 130.303C56.6282 130.348 57.499 130.73 58.0383 132.247C58.282 132.934 58.3801 133.665 58.3264 134.392C58.2728 135.12 58.0684 135.828 57.7264 136.473C55.1725 141.567 45.4897 144.697 45.0478 144.827C44.9249 144.864 44.7937 144.864 44.6709 144.827L44.6644 144.82ZM46.159 143.161C48.9469 142.092 54.8866 139.473 56.6542 135.954C56.9274 135.452 57.0911 134.898 57.1348 134.328C57.1785 133.759 57.1011 133.186 56.9076 132.649C56.5177 131.534 56.0433 131.495 55.8808 131.482H55.7964C53.5609 131.482 49.0184 138.132 46.1395 143.161H46.159ZM30.2831 131.877C29.9487 132.074 29.6771 132.361 29.4999 132.705C29.3227 133.049 29.2473 133.436 29.2824 133.822C29.8087 137.108 38.8092 141.269 43.6506 143.161C42 139.992 37.5745 132.214 33.3049 131.197C33.0176 131.128 32.7231 131.093 32.4276 131.093C31.6438 131.102 30.8867 131.379 30.2831 131.877ZM42.5978 127.14C40.6873 129.894 43.2087 138.216 44.8528 142.597C46.367 138.339 48.622 130.283 46.6984 127.347C46.4708 127.001 46.1575 126.718 45.7887 126.528C45.4199 126.337 45.0081 126.244 44.5929 126.258H44.4759C44.1132 126.231 43.7495 126.298 43.4204 126.452C43.0913 126.607 42.8079 126.844 42.5978 127.14Z" fill="#263238"/>
<g opacity="0.3">
<path d="M44.6644 144.82C43.0527 144.237 28.8989 138.987 28.1061 134.003C27.9177 132.856 28.405 131.819 29.5488 130.938C30.1035 130.48 30.7592 130.161 31.4619 130.005C32.1646 129.85 32.8942 129.863 33.5909 130.043C36.7622 130.808 39.875 134.638 42.1039 138.093C40.9082 133.919 39.9789 128.825 41.6166 126.466C41.9537 125.992 42.4097 125.615 42.939 125.373C43.4682 125.131 44.052 125.031 44.6319 125.085C45.2395 125.075 45.8396 125.219 46.3762 125.504C46.9127 125.788 47.3679 126.204 47.6992 126.712C49.4343 129.363 48.4205 134.852 47.2443 139.026C49.8437 134.962 53.4504 130.082 55.9783 130.303C56.6282 130.348 57.499 130.73 58.0383 132.247C58.282 132.934 58.3801 133.665 58.3264 134.392C58.2728 135.12 58.0684 135.828 57.7264 136.473C55.1725 141.567 45.4897 144.697 45.0478 144.827C44.9249 144.864 44.7937 144.864 44.6709 144.827L44.6644 144.82ZM46.159 143.161C48.9469 142.092 54.8866 139.473 56.6542 135.954C56.9274 135.452 57.0911 134.898 57.1348 134.328C57.1785 133.759 57.1011 133.186 56.9076 132.649C56.5177 131.534 56.0433 131.495 55.8808 131.482H55.7964C53.5609 131.482 49.0184 138.132 46.1395 143.161H46.159ZM30.2831 131.877C29.9487 132.074 29.6771 132.361 29.4999 132.705C29.3227 133.049 29.2473 133.436 29.2824 133.822C29.8087 137.108 38.8092 141.269 43.6506 143.161C42 139.992 37.5745 132.214 33.3049 131.197C33.0176 131.128 32.7231 131.093 32.4276 131.093C31.6438 131.102 30.8867 131.379 30.2831 131.877ZM42.5978 127.14C40.6873 129.894 43.2087 138.216 44.8528 142.597C46.367 138.339 48.622 130.283 46.6984 127.347C46.4708 127.001 46.1575 126.718 45.7887 126.528C45.4199 126.337 45.0081 126.244 44.5929 126.258H44.4759C44.1132 126.231 43.7495 126.298 43.4204 126.452C43.0913 126.607 42.8079 126.844 42.5978 127.14Z" fill="black"/>
</g>
<path d="M75.2204 142.435H15.8303V183.124H75.2204V142.435Z" fill="#407BFF"/>
<path opacity="0.6" d="M75.2204 142.435H15.8303V183.124H75.2204V142.435Z" fill="white"/>
<path opacity="0.1" d="M75.2204 156.493H15.8303V183.124H75.2204V156.493Z" fill="black"/>
<path opacity="0.2" d="M39.4265 142.435H15.8303V183.124H39.4265V142.435Z" fill="white"/>
<path d="M60.2412 142.435H55.4128V183.124H60.2412V142.435Z" fill="#263238"/>
<path d="M27.716 142.435H24.1743V183.124H27.716V142.435Z" fill="#263238"/>
<path opacity="0.2" d="M60.2412 142.435H55.4128V183.124H60.2412V142.435Z" fill="black"/>
<path opacity="0.1" d="M27.716 142.435H24.1743V183.124H27.716V142.435Z" fill="black"/>
<path d="M81.3939 151.768C79.1779 152.001 71.8086 152.552 69.2546 149.681C68.8236 149.212 68.5235 148.638 68.3844 148.017C68.2452 147.396 68.2719 146.75 68.4618 146.142C69.0142 143.945 70.6583 142.863 72.9718 142.863C75.9936 142.863 80.0097 144.917 82.0697 147.4C83.4344 145.028 86.1183 141.431 90.1474 141.845C93.0718 142.137 95.2813 144.354 95.0733 146.791C94.9628 148.087 93.7281 152.235 82.7261 151.729L81.9073 153.881L81.3939 151.768ZM72.9458 145.287C71.7436 145.287 71.0872 145.656 70.8078 146.771C70.7073 146.986 70.677 147.226 70.7213 147.459C70.7657 147.692 70.8823 147.904 71.0547 148.067C72.4194 149.603 77.2673 149.824 80.6076 149.526C79.4183 147.575 75.6557 145.3 72.9783 145.3L72.9458 145.287ZM83.7139 149.312C90.5048 149.487 92.5259 147.652 92.6234 146.577C92.7013 145.624 91.5511 144.431 89.894 144.263C89.7663 144.256 89.6383 144.256 89.5106 144.263C86.6252 144.256 84.5782 147.64 83.7464 149.325L83.7139 149.312Z" fill="#407BFF"/>
<path d="M58.3372 183.13H106.023V150.459H58.3372L58.3372 183.13Z" fill="#263238"/>
<path opacity="0.5" d="M58.3372 183.13H106.023V150.459H58.3372L58.3372 183.13Z" fill="white"/>
<path opacity="0.2" d="M58.3372 183.124H106.023V161.742H58.3372V183.124Z" fill="black"/>
<path d="M70.3659 183.13H74.239V150.459H70.3659V183.13Z" fill="#407BFF"/>
<path d="M96.4771 183.13H99.3235V150.459H96.4771V183.13Z" fill="#407BFF"/>
<path opacity="0.2" d="M87.0737 183.13H106.023V150.459H87.0737V183.13Z" fill="black"/>
<path opacity="0.2" d="M70.3659 183.13H74.239V150.459H70.3659V183.13Z" fill="white"/>
<path d="M33.045 165.631C32.7525 164.853 32.7265 163.654 34.2472 162.332C34.6358 161.975 35.1017 161.711 35.6087 161.562C36.1158 161.412 36.6505 161.381 37.1715 161.47C40.0504 161.924 42.8578 165.651 43.9625 167.303C45.5481 165.132 50.0386 159.364 52.885 159.869C53.8403 160.044 54.5031 160.809 54.8345 162.144C55.0467 162.841 55.0932 163.577 54.9702 164.295C54.8473 165.013 54.5583 165.692 54.1262 166.279C51.7152 169.52 45.2167 169.831 44.9438 169.844C39.8034 169.805 34.0782 168.386 33.045 165.631ZM44.4694 168.625H44.9113C45.2102 168.625 51.1369 168.269 53.1774 165.54C53.5026 165.095 53.7179 164.579 53.806 164.036C53.894 163.492 53.8523 162.935 53.6843 162.41C53.4699 161.567 53.1319 161.114 52.677 161.017C52.61 161.01 52.5426 161.01 52.4756 161.017C50.4935 161.01 46.5749 165.592 44.4694 168.625ZM35.0335 163.233C34.2277 163.933 33.9353 164.601 34.1627 165.216C34.7216 166.713 38.3283 168.314 43.3906 168.593C43.0072 167.984 39.8814 163.103 36.9896 162.643C36.8554 162.634 36.7208 162.634 36.5867 162.643C36.0133 162.64 35.4595 162.85 35.0335 163.233Z" fill="#E0E0E0"/>
<path d="M19.3525 183.124H67.0452V168.34H19.3525V183.124Z" fill="#407BFF"/>
<path opacity="0.2" d="M19.3525 183.124H67.0452V168.34H19.3525V183.124Z" fill="white"/>
<path opacity="0.2" d="M19.3525 183.13H67.0452V173.674H19.3525V183.13Z" fill="black"/>
<path d="M31.3879 183.124H35.261V168.34H31.3879V183.124Z" fill="white"/>
<path d="M57.5054 183.124H60.3518V168.34H57.5054V183.124Z" fill="white"/>
<path opacity="0.2" d="M48.0954 183.124H67.0452V168.34H48.0954V183.124Z" fill="black"/>
<path d="M202.104 183.124H121.074C120.283 183.13 119.499 182.975 118.771 182.667C118.043 182.359 117.386 181.904 116.841 181.333C116.296 180.761 115.875 180.083 115.604 179.342C115.333 178.601 115.217 177.812 115.264 177.025L123.323 6.09874C123.419 4.46583 124.131 2.92974 125.316 1.79861C126.501 0.667486 128.071 0.0249927 129.711 2.32718e-05H210.747C211.539 -0.00665559 212.323 0.14884 213.051 0.456868C213.78 0.764896 214.437 1.21889 214.982 1.7907C215.528 2.36251 215.949 3.03995 216.221 3.78101C216.493 4.52207 216.61 5.31095 216.564 6.09874L208.505 177.025C208.409 178.66 207.695 180.198 206.507 181.329C205.32 182.461 203.747 183.102 202.104 183.124Z" fill="#407BFF"/>
<path opacity="0.4" d="M202.104 183.124H121.074C120.283 183.13 119.499 182.975 118.771 182.667C118.043 182.359 117.386 181.904 116.841 181.333C116.296 180.761 115.875 180.083 115.604 179.342C115.333 178.601 115.217 177.812 115.264 177.025L123.323 6.09874C123.419 4.46583 124.131 2.92974 125.316 1.79861C126.501 0.667486 128.071 0.0249927 129.711 2.32718e-05H210.747C211.539 -0.00665559 212.323 0.14884 213.051 0.456868C213.78 0.764896 214.437 1.21889 214.982 1.7907C215.528 2.36251 215.949 3.03995 216.221 3.78101C216.493 4.52207 216.61 5.31095 216.564 6.09874L208.505 177.025C208.409 178.66 207.695 180.198 206.507 181.329C205.32 182.461 203.747 183.102 202.104 183.124Z" fill="white"/>
<path opacity="0.2" d="M202.104 183.124H121.074C120.283 183.13 119.499 182.975 118.771 182.667C118.043 182.359 117.386 181.904 116.841 181.333C116.296 180.761 115.875 180.083 115.604 179.342C115.333 178.601 115.217 177.812 115.264 177.025L123.323 6.09874C123.419 4.46583 124.131 2.92974 125.316 1.79861C126.501 0.667486 128.071 0.0249927 129.711 2.32718e-05H210.747C211.539 -0.00665559 212.323 0.14884 213.051 0.456868C213.78 0.764896 214.437 1.21889 214.982 1.7907C215.528 2.36251 215.949 3.03995 216.221 3.78101C216.493 4.52207 216.61 5.31095 216.564 6.09874L208.505 177.025C208.409 178.66 207.695 180.198 206.507 181.329C205.32 182.461 203.747 183.102 202.104 183.124Z" fill="black"/>
<path d="M195.606 183.124H114.576C113.784 183.13 113 182.975 112.272 182.667C111.543 182.359 110.886 181.905 110.341 181.333C109.795 180.761 109.374 180.084 109.102 179.343C108.83 178.602 108.713 177.813 108.759 177.025L116.818 6.09874C116.914 4.46584 117.626 2.92974 118.811 1.79862C119.996 0.66749 121.566 0.0249963 123.206 2.68688e-05H204.249C205.04 -0.00671142 205.824 0.148796 206.552 0.456893C207.28 0.76499 207.937 1.2191 208.482 1.79102C209.027 2.36293 209.448 3.04045 209.719 3.78149C209.99 4.52253 210.106 5.31128 210.058 6.09874L202 177.025C201.904 178.659 201.191 180.196 200.004 181.327C198.818 182.458 197.247 183.1 195.606 183.124Z" fill="#407BFF"/>
<path opacity="0.4" d="M195.606 183.124H114.576C113.784 183.13 113 182.975 112.272 182.667C111.543 182.359 110.886 181.905 110.341 181.333C109.795 180.761 109.374 180.084 109.102 179.343C108.83 178.602 108.713 177.813 108.759 177.025L116.818 6.09874C116.914 4.46584 117.626 2.92974 118.811 1.79862C119.996 0.66749 121.566 0.0249963 123.206 2.68688e-05H204.249C205.04 -0.00671142 205.824 0.148796 206.552 0.456893C207.28 0.76499 207.937 1.2191 208.482 1.79102C209.027 2.36293 209.448 3.04045 209.719 3.78149C209.99 4.52253 210.106 5.31128 210.058 6.09874L202 177.025C201.904 178.659 201.191 180.196 200.004 181.327C198.818 182.458 197.247 183.1 195.606 183.124Z" fill="white"/>
<path opacity="0.6" d="M163.523 4.06368C163.523 4.39974 163.392 4.72274 163.158 4.96457C162.924 5.20639 162.605 5.34814 162.268 5.3599C162.107 5.35456 161.948 5.31607 161.802 5.24682C161.656 5.17758 161.526 5.07906 161.42 4.95743C161.314 4.8358 161.234 4.69366 161.185 4.53988C161.137 4.38611 161.121 4.224 161.138 4.06368C161.137 3.72762 161.268 3.40461 161.502 3.16278C161.736 2.92096 162.055 2.77922 162.392 2.76746C162.553 2.77465 162.711 2.81438 162.856 2.88423C163.001 2.95409 163.13 3.05262 163.236 3.17383C163.342 3.29505 163.422 3.43643 163.471 3.58939C163.52 3.74236 163.538 3.90372 163.523 4.06368Z" fill="black"/>
<path opacity="0.6" d="M165.94 4.0637C165.935 4.27786 165.85 4.48236 165.7 4.63621C165.551 4.79006 165.349 4.88189 165.134 4.89328C165.031 4.88848 164.931 4.8629 164.838 4.8181C164.745 4.77329 164.663 4.71019 164.595 4.63262C164.528 4.55505 164.477 4.46463 164.446 4.36683C164.414 4.26904 164.403 4.16591 164.413 4.0637C164.419 3.85173 164.504 3.64972 164.652 3.49739C164.8 3.34507 165 3.25346 165.212 3.2406C165.315 3.2446 165.416 3.26937 165.509 3.3134C165.602 3.35743 165.685 3.41981 165.753 3.49676C165.821 3.57371 165.873 3.66363 165.905 3.76108C165.937 3.85853 165.949 3.96148 165.94 4.0637Z" fill="black"/>
<path d="M206.913 6.13764L198.855 176.662C198.847 177.309 198.591 177.929 198.139 178.393C197.686 178.857 197.073 179.131 196.424 179.157H113.893C113.61 179.148 113.332 179.079 113.076 178.956C112.821 178.834 112.594 178.659 112.411 178.443C112.227 178.228 112.091 177.977 112.01 177.706C111.93 177.435 111.907 177.15 111.944 176.869L119.976 5.93025C119.965 5.41016 120.152 4.90535 120.499 4.51708C120.847 4.12881 121.328 3.88582 121.847 3.83685H142.487C142.784 3.84312 143.071 3.94494 143.305 4.12714C143.539 4.30934 143.708 4.56216 143.786 4.8479L144.514 7.12925C144.594 7.41379 144.763 7.66517 144.997 7.84613C145.231 8.02708 145.518 8.12796 145.814 8.13382H180.951C181.253 8.12203 181.544 8.02241 181.788 7.8473C182.033 7.6722 182.221 7.4293 182.329 7.1487L183.258 4.85439C183.365 4.57003 183.552 4.32255 183.796 4.14194C184.041 3.96133 184.332 3.85535 184.636 3.83685H204.983C205.264 3.85526 205.537 3.93021 205.788 4.05717C206.039 4.18414 206.261 4.36048 206.442 4.57554C206.622 4.7906 206.757 5.03991 206.838 5.3084C206.919 5.5769 206.944 5.85899 206.913 6.13764Z" fill="#263238"/>
<path opacity="0.3" d="M206.517 14.4918L199.284 167.854H112.34L119.573 14.4918H206.517Z" fill="white"/>
<path d="M203.437 34.2916H120.782L114.589 165.683H197.243L203.437 34.2916Z" fill="#407BFF"/>
<path opacity="0.8" d="M203.437 34.2916H120.782L114.589 165.683H197.243L203.437 34.2916Z" fill="white"/>
<path d="M156.082 174.698H154.899C154.752 174.699 154.606 174.67 154.471 174.613C154.336 174.556 154.214 174.471 154.113 174.365C154.012 174.258 153.933 174.132 153.883 173.995C153.833 173.857 153.811 173.71 153.82 173.564L153.892 172.067C153.907 171.762 154.038 171.474 154.26 171.263C154.481 171.052 154.775 170.934 155.081 170.933H156.257C156.404 170.931 156.55 170.96 156.685 171.018C156.821 171.075 156.943 171.16 157.044 171.266C157.145 171.372 157.223 171.498 157.273 171.636C157.324 171.774 157.345 171.92 157.336 172.067L157.271 173.564C157.253 173.868 157.12 174.154 156.9 174.364C156.679 174.574 156.387 174.694 156.082 174.698V174.698Z" stroke="white" stroke-width="0.86" stroke-miterlimit="10"/>
<path d="M203.501 32.9629H120.847L121.575 17.499H204.229L203.501 32.9629Z" fill="#407BFF"/>
<path d="M199.999 22.5931C199.996 22.7686 199.928 22.9368 199.808 23.0649C199.688 23.1931 199.524 23.2721 199.349 23.2866C199.264 23.2809 199.18 23.2583 199.103 23.2203C199.027 23.1823 198.958 23.1296 198.902 23.0651C198.846 23.0007 198.803 22.9258 198.776 22.8448C198.749 22.7638 198.738 22.6783 198.745 22.5931C198.747 22.4177 198.815 22.2495 198.935 22.1213C199.056 21.9931 199.219 21.9141 199.394 21.8997C199.48 21.9054 199.563 21.9279 199.64 21.9659C199.717 22.004 199.785 22.0567 199.841 22.1211C199.897 22.1856 199.94 22.2604 199.967 22.3414C199.994 22.4224 200.005 22.508 199.999 22.5931Z" fill="white"/>
<path d="M199.875 25.231C199.873 25.4064 199.805 25.5746 199.685 25.7028C199.565 25.8309 199.401 25.91 199.226 25.9244C199.054 25.9112 198.895 25.8308 198.783 25.7008C198.671 25.5708 198.615 25.4019 198.628 25.231C198.63 25.0555 198.698 24.8873 198.818 24.7591C198.939 24.631 199.102 24.5519 199.278 24.5375C199.449 24.5507 199.608 24.6311 199.72 24.7611C199.832 24.8911 199.888 25.06 199.875 25.231Z" fill="white"/>
<path d="M199.752 27.8688C199.749 28.0442 199.681 28.2124 199.561 28.3406C199.441 28.4688 199.277 28.5478 199.102 28.5622C198.931 28.549 198.772 28.4686 198.66 28.3386C198.547 28.2087 198.492 28.0397 198.504 27.8688C198.505 27.6929 198.573 27.5239 198.693 27.3954C198.814 27.2669 198.978 27.1883 199.154 27.1753C199.325 27.1885 199.484 27.269 199.597 27.3989C199.709 27.5289 199.764 27.6978 199.752 27.8688Z" fill="white"/>
<path d="M152.761 160.479L156.069 162.449L159.558 160.479" stroke="white" stroke-width="0.86" stroke-linecap="round" stroke-linejoin="round"/>
<path d="M152.871 158.132L156.179 160.103L159.669 158.132" stroke="white" stroke-width="0.86" stroke-linecap="round" stroke-linejoin="round"/>
<path opacity="0.6" d="M129.334 10.7068H130.406L130.477 9.14484H129.405L129.334 10.7068Z" fill="white"/>
<path opacity="0.6" d="M127.579 10.7068H128.658L128.755 8.6264H127.677L127.579 10.7068Z" fill="white"/>
<path opacity="0.6" d="M125.831 10.7068H126.903L127.027 8.10138H125.955L125.831 10.7068Z" fill="white"/>
<path opacity="0.6" d="M124.083 10.7068H125.155L125.305 7.58295H124.226L124.083 10.7068Z" fill="white"/>
<path opacity="0.6" d="M196.879 10.1365H196.249L196.321 8.57452H196.957L196.879 10.1365Z" fill="white"/>
<path opacity="0.6" d="M197.295 10.7068H202.364L202.494 8.00421H197.419L197.295 10.7068Z" fill="white"/>
<path d="M177.124 54.7718C168.955 53.4756 162.268 63.8454 160.293 67.3192C158.343 63.8713 151.624 53.4821 143.455 54.7718C133.759 56.2949 133.974 72.8217 160.293 68.5118C186.605 72.8217 186.82 56.2949 177.124 54.7718ZM142.175 60.1252C145.964 56.3986 156.855 67.0989 156.855 67.0989C156.855 67.0989 138.38 63.8519 142.175 60.1252ZM163.724 67.0989C163.724 67.0989 174.616 56.3856 178.411 60.1252C182.206 63.8648 163.724 67.0989 163.724 67.0989Z" fill="#407BFF"/>
<path opacity="0.6" d="M177.117 54.7654C168.955 53.4691 162.268 63.8389 160.286 67.3128C158.337 63.8648 151.617 53.4821 143.455 54.7654C136.84 55.8088 134.838 63.8389 142.604 67.4618C146.21 69.1469 151.936 69.8728 160.286 68.5053C168.637 69.8728 174.356 69.1534 177.969 67.4618C185.741 63.8454 183.739 55.8088 177.117 54.7654ZM142.168 60.1188C145.963 56.3921 156.849 67.0989 156.849 67.0989C156.849 67.0989 138.38 63.8454 142.168 60.1188ZM163.724 67.0989C163.724 67.0989 174.615 56.3856 178.404 60.1188C182.193 63.8519 163.724 67.0989 163.724 67.0989Z" fill="white"/>
<path d="M187.314 69.7108L186.891 78.6158L186.807 80.4694L185.169 115.195H130.282L131.92 80.4694L132.005 78.6158L132.427 69.7108H187.314Z" fill="#407BFF"/>
<path d="M188.672 68.4146L188.191 78.6158H130.705L131.186 68.4146H188.672Z" fill="#407BFF"/>
<path opacity="0.7" d="M163.906 68.4146L163.841 69.7108L163.419 78.6158L161.69 115.195H153.242L154.971 78.6158L155.393 69.7108L155.451 68.4146H163.906Z" fill="white"/>
<path opacity="0.2" d="M186.891 78.6158L186.807 80.4694H131.92L132.005 78.6158H186.891Z" fill="black"/>
<path opacity="0.2" d="M202.325 3.83685L115.836 93.652L119.976 5.93025C119.965 5.41016 120.153 4.90535 120.5 4.51708C120.847 4.12881 121.328 3.88582 121.848 3.83685H142.487C142.783 3.84516 143.069 3.94775 143.303 4.12964C143.537 4.31153 143.706 4.5632 143.787 4.8479L144.514 7.12925C144.595 7.41327 144.765 7.66407 144.999 7.84487C145.232 8.02567 145.518 8.12694 145.814 8.13382H180.958C181.258 8.12161 181.548 8.02174 181.792 7.84661C182.036 7.67147 182.223 7.42879 182.329 7.1487L183.259 4.85439C183.365 4.56861 183.552 4.32001 183.798 4.13921C184.044 3.95841 184.338 3.85331 184.643 3.83685H202.325Z" fill="white"/>
<path opacity="0.2" d="M206.237 20.4868L205.886 27.8558L114.465 122.798L114.81 115.428L206.237 20.4868Z" fill="white"/>
<path d="M194.222 17.499H117.299V32.9694H194.222V17.499Z" fill="white"/>
<g opacity="0.2">
<path d="M203.501 32.9629H120.847L121.575 17.499H204.229L203.501 32.9629Z" fill="white"/>
<path d="M199.999 22.5932C199.996 22.7686 199.928 22.9368 199.808 23.065C199.688 23.1932 199.524 23.2722 199.349 23.2867C199.264 23.2809 199.18 23.2584 199.103 23.2204C199.027 23.1824 198.958 23.1296 198.902 23.0652C198.846 23.0008 198.803 22.9259 198.776 22.8449C198.749 22.7639 198.738 22.6784 198.745 22.5932C198.747 22.4178 198.815 22.2496 198.935 22.1214C199.056 21.9932 199.219 21.9142 199.394 21.8997C199.48 21.9055 199.563 21.928 199.64 21.966C199.717 22.004 199.785 22.0568 199.841 22.1212C199.897 22.1856 199.94 22.2605 199.967 22.3415C199.994 22.4225 200.005 22.508 199.999 22.5932Z" fill="white"/>
<path d="M199.875 25.231C199.873 25.4064 199.805 25.5746 199.685 25.7028C199.565 25.8309 199.401 25.91 199.226 25.9244C199.054 25.9112 198.895 25.8308 198.783 25.7008C198.671 25.5708 198.615 25.4019 198.628 25.231C198.63 25.0555 198.698 24.8873 198.818 24.7591C198.939 24.631 199.102 24.5519 199.278 24.5375C199.449 24.5507 199.608 24.6311 199.72 24.7611C199.832 24.8911 199.888 25.06 199.875 25.231Z" fill="white"/>
<path d="M199.752 27.8688C199.749 28.0442 199.681 28.2124 199.561 28.3406C199.441 28.4688 199.277 28.5478 199.102 28.5622C198.931 28.549 198.772 28.4686 198.66 28.3386C198.547 28.2087 198.492 28.0397 198.504 27.8688C198.505 27.6929 198.573 27.5239 198.693 27.3954C198.814 27.2669 198.978 27.1883 199.154 27.1753C199.325 27.1885 199.484 27.269 199.597 27.3989C199.709 27.5289 199.764 27.6978 199.752 27.8688Z" fill="white"/>
</g>
<path d="M127.923 36.3691C129.808 34.4885 129.808 31.4396 127.923 29.559C126.037 27.6785 122.98 27.6784 121.094 29.559C119.209 31.4396 119.209 34.4885 121.094 36.3691C122.98 38.2496 126.037 38.2496 127.923 36.3691Z" fill="white"/>
<path d="M148.602 33.74C149.029 31.1149 147.241 28.6413 144.609 28.2152C141.977 27.7891 139.497 29.5717 139.07 32.1969C138.642 34.822 140.43 37.2956 143.062 37.7217C145.694 38.1478 148.174 36.3652 148.602 33.74Z" fill="white"/>
<path d="M167.839 34.0669C168.452 31.4785 166.844 28.885 164.249 28.274C161.654 27.6631 159.053 29.2662 158.44 31.8546C157.828 34.443 159.435 37.0365 162.031 37.6474C164.626 38.2583 167.226 36.6553 167.839 34.0669Z" fill="white"/>
<path d="M185.877 36.3693C187.762 34.4887 187.762 31.4398 185.877 29.5592C183.991 27.6786 180.934 27.6786 179.048 29.5592C177.163 31.4397 177.163 34.4887 179.048 36.3693C180.934 38.2498 183.991 38.2498 185.877 36.3693Z" fill="white"/>
<path d="M196.958 32.9629C196.958 32.9629 198.303 20.4674 204.229 17.499L203.502 32.9629H196.958Z" fill="#407BFF"/>
<path d="M194.573 17.499C189.822 19.8776 188.016 28.3678 187.483 31.6538C187.295 32.3166 187.252 33.0119 187.357 33.6927C187.461 34.3735 187.711 35.024 188.089 35.6003C188.467 36.1766 188.965 36.6653 189.549 37.0334C190.133 37.4015 190.789 37.6404 191.473 37.734C192.157 37.8276 192.854 37.7737 193.515 37.576C194.177 37.3783 194.788 37.0413 195.308 36.5879C195.828 36.1344 196.244 35.5751 196.529 34.9475C196.813 34.3199 196.959 33.6387 196.958 32.95C196.958 32.95 198.303 20.4674 204.229 17.499H194.573Z" fill="#407BFF"/>
<path d="M168.162 31.6538C167.975 32.3166 167.932 33.0119 168.036 33.6927C168.141 34.3735 168.391 35.024 168.769 35.6003C169.147 36.1766 169.645 36.6653 170.229 37.0334C170.812 37.4015 171.468 37.6404 172.153 37.734C172.837 37.8276 173.533 37.7737 174.195 37.576C174.856 37.3783 175.468 37.0413 175.988 36.5879C176.507 36.1344 176.924 35.5751 177.208 34.9475C177.493 34.3199 177.639 33.6387 177.637 32.95C177.637 32.95 178.982 20.4674 184.909 17.499H175.252C170.502 19.8776 168.695 28.3678 168.162 31.6538Z" fill="#407BFF"/>
<path d="M148.849 31.6538C148.724 32.0747 148.661 32.5111 148.66 32.95C148.66 34.2271 149.169 35.4519 150.075 36.355C150.98 37.2581 152.208 37.7654 153.489 37.7654C154.769 37.7654 155.998 37.2581 156.903 36.355C157.809 35.4519 158.317 34.2271 158.317 32.95C158.317 32.95 159.669 20.4674 165.596 17.499H155.965C151.182 19.8776 149.375 28.3743 148.849 31.6538Z" fill="#407BFF"/>
<path d="M129.529 31.6538C129.407 32.0753 129.344 32.5114 129.34 32.95C129.386 34.1974 129.915 35.3785 130.816 36.2448C131.718 37.1111 132.92 37.5952 134.172 37.5952C135.424 37.5952 136.626 37.1111 137.528 36.2448C138.429 35.3785 138.958 34.1974 139.004 32.95C139.004 32.95 140.368 20.4674 146.275 17.499H136.619C131.868 19.8776 130.062 28.3743 129.529 31.6538Z" fill="#407BFF"/>
<path d="M110.209 31.6538C110.021 32.3166 109.978 33.0119 110.082 33.6927C110.187 34.3735 110.437 35.024 110.815 35.6003C111.193 36.1766 111.691 36.6653 112.275 37.0334C112.858 37.4015 113.515 37.6404 114.199 37.734C114.883 37.8276 115.579 37.7737 116.241 37.576C116.903 37.3783 117.514 37.0413 118.034 36.5879C118.554 36.1344 118.97 35.5751 119.254 34.9475C119.539 34.3199 119.685 33.6387 119.683 32.95C119.683 32.95 121.029 20.4674 126.955 17.499H117.298C112.548 19.8776 110.741 28.3678 110.209 31.6538Z" fill="#407BFF"/>
<path opacity="0.2" d="M196.958 32.9629C196.958 32.9629 198.303 20.4674 204.229 17.499L203.502 32.9629H196.958Z" fill="black"/>
<path d="M89.5562 68.421C88.6529 69.1534 87.7951 69.7626 86.8983 70.4042C86.0015 71.0459 85.0917 71.6162 84.1689 72.193C82.3271 73.3596 80.4247 74.4283 78.4697 75.3947L78.3202 75.4725C77.8209 75.7232 77.2517 75.7994 76.7037 75.6889C76.1558 75.5784 75.6609 75.2877 75.2984 74.8632C74.9553 74.4669 74.6946 74.0065 74.5316 73.5087C74.4134 73.16 74.3349 72.7991 74.2977 72.4328C74.2419 71.8833 74.2419 71.3296 74.2977 70.7801C74.4006 69.8912 74.5722 69.0114 74.811 68.1488C75.2502 66.572 75.7885 65.0242 76.4227 63.5148C77.0335 62.0436 77.7224 60.6113 78.3722 59.2049C79.0221 57.7985 79.7954 56.418 80.6077 55.0505C80.7611 54.7067 81.0452 54.4378 81.3974 54.3029C81.5718 54.2361 81.7576 54.2042 81.9444 54.209C82.1312 54.2139 82.3151 54.2554 82.4858 54.3311C82.6565 54.4069 82.8105 54.5154 82.9392 54.6505C83.0678 54.7856 83.1685 54.9447 83.2354 55.1186C83.3024 55.2926 83.3344 55.4779 83.3295 55.6642C83.3247 55.8504 83.2831 56.0339 83.2071 56.2041C82.7327 57.6429 82.2389 59.0947 81.7905 60.5465C81.3421 61.9982 80.8872 63.4435 80.4908 64.8888C80.0943 66.3341 79.7304 67.7664 79.4835 69.1469C79.3634 69.7885 79.2961 70.4387 79.282 71.0912C79.2732 71.3083 79.2885 71.5256 79.3275 71.7393C79.3275 71.8755 79.451 71.8236 79.1521 71.4283L75.9743 70.8968C77.7029 69.8015 79.399 68.6479 81.0951 67.4877C81.9399 66.9109 82.7717 66.3017 83.6035 65.7119C84.4354 65.1221 85.2802 64.4935 86.0535 63.9361L86.099 63.8972C86.6983 63.4677 87.4414 63.2871 88.1717 63.3935C88.9019 63.4999 89.5622 63.8851 90.0132 64.4677C90.4641 65.0503 90.6706 65.7848 90.589 66.5163C90.5074 67.2478 90.1441 67.9191 89.5757 68.3886L89.5562 68.421Z" fill="#E9B376"/>
<path d="M91.2263 61.1881C87.1647 61.1104 81.0366 65.9388 81.0366 65.9388C81.0366 65.9388 82.2194 73.7615 84.2859 74.4809C86.3524 75.2003 91.2263 61.1881 91.2263 61.1881Z" fill="#407BFF"/>
<path opacity="0.7" d="M91.2262 61.1946C91.2262 61.1946 87.9249 70.5468 85.605 73.5735C85.0916 74.2216 84.6237 74.6169 84.2533 74.4808C83.4605 74.2022 82.7911 72.8282 82.3037 71.2403C81.7642 69.4938 81.3495 67.7113 81.0625 65.9063C81.0625 65.9063 87.1646 61.1103 91.2262 61.1946Z" fill="white"/>
<path opacity="0.1" d="M85.605 73.5735C85.0916 74.2216 84.6237 74.617 84.2533 74.4809C83.4604 74.2022 82.7911 72.8282 82.3037 71.2403C83.2884 70.0953 84.462 69.1264 85.7739 68.3757C86.2743 69.7432 86.1378 71.8495 85.605 73.5735Z" fill="black"/>
<path d="M81.3811 65.498L83.9545 74.1309L82.8303 74.416L80.4128 66.1915L81.3811 65.498Z" fill="#407BFF"/>
<path d="M99.5964 37.5904C99.5964 37.5904 96.1392 36.5275 93.9427 39.4375C91.7462 42.3476 93.0134 47.4871 93.0134 47.4871C93.0134 47.4871 94.6575 51.3757 91.8437 53.8839C89.3807 56.0745 91.4278 58.4207 95.4179 60.1187C99.408 61.8168 107.362 62.426 109.799 60.4428C112.236 58.4596 109.11 55.6273 110.313 51.2267C111.515 46.826 112.392 42.6133 108.129 39.3922C104.626 36.7414 101.507 36.7284 99.5964 37.5904Z" fill="#263238"/>
<path d="M65.5896 183.124C69.1248 183.124 69.5927 183.072 71.5812 183C73.2838 182.942 73.6933 183.156 75.0579 183.124C76.2017 183.124 76.1562 182.009 75.8053 180.752C75.6298 180.103 75.3569 178.807 75.1164 177.77L69.9176 177.394C69.1898 178.781 67.5456 180.764 65.5506 181.03C63.5556 181.296 64.1729 183.124 65.5896 183.124Z" fill="#407BFF"/>
<path d="M91.7591 183.124C95.3008 183.124 95.7687 183.072 97.7572 183C99.4598 182.942 99.8628 183.156 101.234 183.124C102.378 183.124 102.332 182.009 101.981 180.752C101.806 180.103 101.533 178.807 101.286 177.77L96.0871 177.394C95.3593 178.781 93.7087 180.764 91.7136 181.03C89.8355 181.289 90.3294 183.124 91.7591 183.124Z" fill="#407BFF"/>
<path d="M83.0836 89.1281C83.0836 89.1281 78.4761 115.48 77.7158 129.674C76.923 144.58 72.1335 168.463 69.5991 177.796C70.3075 178.444 73.6607 178.703 75.2463 177.913C75.2463 177.913 89.0752 150.375 87.2751 133.154C98.8425 100.684 96.0416 88.5319 96.0416 88.5319L83.0836 89.1281Z" fill="#263238"/>
<path opacity="0.2" d="M90.6999 122.823C92.344 117.412 93.5332 112.726 94.3715 108.714C93.5397 105.571 92.357 102.881 90.7518 101.261C90.7518 101.261 88.4449 110.017 90.6999 122.823Z" fill="black"/>
<path d="M88.0029 86.5162C88.0029 86.5162 91.7851 115.681 93.9556 129.765C96.2301 144.522 96.5225 168.204 95.9506 177.848C96.7824 178.334 99.8043 178.911 101.435 178.405C101.435 178.405 109.149 148.592 104.035 131.223C109.611 105.013 101.728 91.2021 101.728 91.2021L88.0029 86.5162Z" fill="#263238"/>
<path d="M84.5394 68.0516C84.077 70.557 83.7817 73.0902 83.6556 75.6345C83.3892 79.3417 83.2332 83.01 83.0837 89.1282L101.735 91.2151C101.949 85.933 103.236 80.0287 107.908 68.6155C108.175 68.0212 108.306 67.3748 108.29 66.7236C108.274 66.0725 108.112 65.4332 107.816 64.8526C107.52 64.272 107.098 63.7649 106.579 63.3686C106.061 62.9722 105.46 62.6967 104.821 62.5621C104.093 62.4001 103.314 62.251 102.514 62.1214C99.7245 61.606 96.9013 61.2898 94.0663 61.1752C93.137 61.1752 92.1687 61.1752 91.2459 61.1752C87.8797 61.2789 85.0138 64.8111 84.5394 68.0516Z" fill="#407BFF"/>
<path opacity="0.7" d="M107.908 68.6155L107.596 69.3932C106.296 72.543 105.302 75.2651 104.509 77.6696C102.56 83.5738 101.91 87.5403 101.734 91.2151L83.0901 89.1281C83.2331 83.01 83.3825 79.3417 83.662 75.6345C83.7812 73.0896 84.0765 70.5559 84.5458 68.0516C85.0137 64.811 87.8795 61.2788 91.2262 61.1946C92.149 61.1946 93.1173 61.1557 94.0466 61.1946C96.8816 61.3097 99.7048 61.6259 102.495 62.1408C103.294 62.2769 104.067 62.4195 104.808 62.5815C105.446 62.7152 106.045 62.9892 106.563 63.3836C107.081 63.778 107.504 64.2829 107.801 64.8612C108.098 65.4395 108.262 66.0767 108.28 66.7262C108.299 67.3758 108.172 68.0213 107.908 68.6155Z" fill="white"/>
<path d="M81.3746 50.6822L82.5313 51.4535C82.7471 51.5964 82.9257 51.7885 83.0523 52.0139C83.1788 52.2393 83.2498 52.4915 83.2592 52.7497L83.3436 55.1996C83.3595 55.6834 83.2593 56.164 83.0513 56.6014C82.8433 57.0388 82.5336 57.4203 82.1479 57.7142L81.6605 58.0837C79.6395 56.93 78.3008 54.195 78.3008 54.195L77.8329 53.4626C77.7328 53.3143 77.6631 53.1477 77.6278 52.9725C77.5926 52.7972 77.5925 52.6167 77.6275 52.4413C77.6626 52.266 77.732 52.0993 77.832 51.9509C77.9319 51.8025 78.0603 51.6753 78.2098 51.5766L79.659 50.6304C79.919 50.4715 80.2198 50.3918 80.5245 50.401C80.8293 50.4103 81.1247 50.508 81.3746 50.6822Z" fill="#EBB376"/>
<path d="M84.8642 48.0898C86.0924 46.4371 88.1135 45.8668 89.4132 46.7936C90.7129 47.7204 90.7649 49.8591 89.5431 51.5118C88.3214 53.1645 86.2939 53.7348 84.9942 52.808C83.6945 51.8812 83.6425 49.7425 84.8642 48.0898Z" fill="#407BFF"/>
<path d="M74.3301 40.4227L78.5607 34.5897C78.5607 34.5897 80.3023 40.0208 83.5061 42.367L81.3616 45.264L81.0236 45.7242L78.8791 48.6083C75.6753 46.2556 69.9631 46.1908 69.9631 46.1908L74.3301 40.4227Z" fill="#407BFF"/>
<path opacity="0.8" d="M84.8642 48.0898C86.0924 46.4371 88.1135 45.8668 89.4132 46.7936C90.7129 47.7204 90.7649 49.8591 89.5431 51.5118C88.3214 53.1645 86.2939 53.7348 84.9942 52.808C83.6945 51.8812 83.6425 49.7425 84.8642 48.0898Z" fill="white"/>
<path opacity="0.8" d="M74.3301 40.4227L78.5607 34.5897C78.5607 34.5897 80.3023 40.0208 83.5061 42.367L81.3616 45.264L81.0236 45.7242L78.8791 48.6083C75.6753 46.2556 69.9631 46.1908 69.9631 46.1908L74.3301 40.4227Z" fill="white"/>
<path d="M84.6303 51.8035C84.6303 51.8035 81.6994 55.044 79.217 56.0875C79.1313 56.1191 79.0373 56.1203 78.9508 56.0908C78.8644 56.0613 78.7908 56.0029 78.7426 55.9255L77.079 53.2293C77.0476 53.1785 77.0283 53.1211 77.0227 53.0617C77.0171 53.0022 77.0253 52.9423 77.0467 52.8865C77.068 52.8307 77.102 52.7806 77.1459 52.74C77.1898 52.6994 77.2425 52.6695 77.2999 52.6525C78.3267 52.3479 80.7442 51.5248 82.2518 50.1443C84.2144 48.349 84.6303 51.8035 84.6303 51.8035Z" fill="#407BFF"/>
<path opacity="0.3" d="M84.6303 51.8035C84.6303 51.8035 81.6994 55.044 79.217 56.0875C79.1313 56.1191 79.0373 56.1203 78.9508 56.0908C78.8644 56.0613 78.7908 56.0029 78.7426 55.9255L77.079 53.2293C77.0476 53.1785 77.0283 53.1211 77.0227 53.0617C77.0171 53.0022 77.0253 52.9423 77.0467 52.8865C77.068 52.8307 77.102 52.7806 77.1459 52.74C77.1898 52.6994 77.2425 52.6695 77.2999 52.6525C78.3267 52.3479 80.7442 51.5248 82.2518 50.1443C84.2144 48.349 84.6303 51.8035 84.6303 51.8035Z" fill="black"/>
<path d="M69.9762 46.3723C70.7105 46.9102 73.2644 44.6937 75.6819 41.4272C78.0993 38.1607 79.4705 35.0628 78.7362 34.5248C78.0019 33.9869 75.4479 36.197 73.0305 39.4699C70.613 42.7429 69.2418 45.8279 69.9762 46.3723Z" fill="white"/>
<path opacity="0.4" d="M70.431 45.3678C70.9769 45.7696 72.9719 44.0262 74.98 41.4078C75.0969 41.2652 75.2074 41.1097 75.3244 40.9541L75.7273 40.4032C77.5989 37.746 78.6516 35.3804 78.1123 34.9786C77.5729 34.5767 75.3309 36.5275 73.2059 39.3922C71.0809 42.2568 69.8461 44.94 70.431 45.3678Z" fill="black"/>
<path d="M85.2346 53.5015C85.2346 53.5015 86.1574 53.009 88.0419 50.4619C90.0825 47.7009 90.141 46.8649 90.141 46.8649L82.9926 41.6087C82.9926 41.6087 82.7651 42.6716 80.8546 45.2576C78.944 47.8435 78.0862 48.2454 78.0862 48.2454L85.2346 53.5015Z" fill="#407BFF"/>
<path d="M74.98 41.4143C75.097 41.2717 75.2075 41.1161 75.3244 40.9606L75.7274 40.4097L74.9605 40.0597C74.8794 40.0231 74.7877 40.0174 74.7027 40.0437C74.6177 40.0699 74.5452 40.1264 74.4991 40.2023L74.4211 40.306C74.3646 40.3745 74.3337 40.4604 74.3337 40.549C74.3337 40.6377 74.3646 40.7236 74.4211 40.7921L74.98 41.4143Z" fill="white"/>
<path opacity="0.2" d="M74.98 41.4143C75.097 41.2717 75.2075 41.1161 75.3244 40.9606L75.7274 40.4097L74.9605 40.0597C74.8794 40.0231 74.7877 40.0174 74.7027 40.0437C74.6177 40.0699 74.5452 40.1264 74.4991 40.2023L74.4211 40.306C74.3646 40.3745 74.3337 40.4604 74.3337 40.549C74.3337 40.6377 74.3646 40.7236 74.4211 40.7921L74.98 41.4143Z" fill="black"/>
<path d="M102.989 52.5488C101.949 55.1801 100.48 60.0604 102.053 62.0695C102.053 62.0695 99.5119 61.4214 93.6503 64.1629C92.3181 61.713 93.5788 61.1233 93.5788 61.1233C96.7566 60.7474 97.0945 58.5308 96.9645 56.3532L102.989 52.5488Z" fill="#EBB376"/>
<path opacity="0.2" d="M100.532 54.0978L96.9646 56.3856C97.0103 56.8901 97.0103 57.3977 96.9646 57.9022C98.1603 57.8633 99.9929 56.781 100.344 55.5949C100.497 55.1113 100.56 54.6041 100.532 54.0978Z" fill="black"/>
<path d="M105.926 47.351C104.626 51.6479 104.139 53.4886 101.377 55.3098C97.2438 58.0577 92.2465 55.8023 92.279 51.272C92.279 47.1954 94.443 40.8569 99.1414 39.9171C100.142 39.6818 101.188 39.7177 102.17 40.0211C103.152 40.3245 104.035 40.8844 104.727 41.6428C105.419 42.4012 105.895 43.3304 106.106 44.334C106.317 45.3377 106.255 46.3794 105.926 47.351Z" fill="#EBB376"/>
<path d="M100.227 47.4546C100.136 47.8176 99.8629 48.1027 99.629 48.0379C99.395 47.9731 99.2781 47.662 99.3755 47.2926C99.473 46.9232 99.7395 46.6445 99.9734 46.7158C100.207 46.7871 100.324 47.0917 100.227 47.4546Z" fill="#263238"/>
<path d="M95.6519 46.4566C95.5609 46.8195 95.288 47.1047 95.054 47.0334C94.8201 46.9621 94.7031 46.6575 94.8006 46.2946C94.8981 45.9316 95.1645 45.6464 95.3985 45.7113C95.6324 45.7761 95.7494 46.0872 95.6519 46.4566Z" fill="#263238"/>
<path d="M95.5283 45.7501L94.6965 45.3677C94.6965 45.3677 94.963 46.1066 95.5283 45.7501Z" fill="#263238"/>
<path d="M96.8281 46.9686C96.2892 47.7435 95.6538 48.4469 94.937 49.062C95.0903 49.2302 95.28 49.3613 95.4917 49.4456C95.7033 49.5298 95.9315 49.5648 96.1587 49.548L96.8281 46.9686Z" fill="#D58745"/>
<path d="M101.507 45.2899C101.478 45.2885 101.449 45.2808 101.424 45.2674C101.398 45.254 101.375 45.2351 101.357 45.2122C101.207 44.9917 101.005 44.8118 100.768 44.6885C100.53 44.5652 100.267 44.5024 99.9993 44.5057C99.9712 44.5084 99.9429 44.5053 99.9162 44.4964C99.8894 44.4875 99.8649 44.4732 99.844 44.4542C99.8232 44.4353 99.8066 44.4122 99.7953 44.3865C99.784 44.3607 99.7782 44.3329 99.7783 44.3048C99.7781 44.2462 99.8001 44.1896 99.8398 44.1463C99.8796 44.1031 99.9342 44.0764 99.9928 44.0715C100.332 44.06 100.668 44.1334 100.971 44.2851C101.274 44.4369 101.535 44.662 101.728 44.94C101.76 44.989 101.771 45.0486 101.759 45.1057C101.746 45.1628 101.712 45.2127 101.663 45.2446C101.641 45.2625 101.617 45.2758 101.59 45.2836C101.563 45.2914 101.535 45.2936 101.507 45.2899Z" fill="#263238"/>
<path d="M94.3912 43.6956C94.3366 43.6973 94.2834 43.6789 94.2417 43.6438C94.2004 43.6025 94.1772 43.5465 94.1772 43.4882C94.1772 43.4299 94.2004 43.374 94.2417 43.3327C94.4833 43.0654 94.7843 42.8583 95.1206 42.7277C95.4568 42.5972 95.819 42.5469 96.1782 42.5809C96.2056 42.5854 96.2318 42.5956 96.255 42.6107C96.2783 42.6258 96.2982 42.6455 96.3134 42.6686C96.3287 42.6917 96.339 42.7178 96.3437 42.745C96.3484 42.7723 96.3474 42.8003 96.3407 42.8272C96.3282 42.8849 96.2948 42.936 96.2468 42.9707C96.1988 43.0054 96.1397 43.0212 96.0808 43.0151C95.7996 42.9955 95.5176 43.0402 95.2563 43.1458C94.995 43.2514 94.7614 43.415 94.5731 43.6243C94.5497 43.6486 94.5214 43.6675 94.49 43.6798C94.4585 43.6921 94.4248 43.6975 94.3912 43.6956Z" fill="#263238"/>
<path d="M100.077 46.7547L99.2781 46.3399C99.2781 46.3399 99.538 47.1047 100.077 46.7547Z" fill="#263238"/>
<path d="M95.2878 51.2785C95.3521 51.97 95.3694 52.6651 95.3398 53.3589C95.4597 53.391 95.5812 53.417 95.7037 53.4367C96.2229 53.587 96.772 53.6022 97.2987 53.4808C97.8254 53.3594 98.3122 53.1055 98.7126 52.7432C98.9262 52.5159 99.0704 52.2327 99.1285 51.9266C99.1734 51.7264 99.1996 51.5224 99.2065 51.3174C98.5891 50.7989 96.6915 50.6369 95.8467 51.0193C95.6514 51.0848 95.464 51.1718 95.2878 51.2785Z" fill="#263238"/>
<path d="M95.8467 51.0193C95.8467 51.2396 95.8467 51.46 95.8857 51.6674C96.974 51.6281 98.0634 51.7063 99.1349 51.9007C99.1799 51.7005 99.206 51.4965 99.2129 51.2915C98.5891 50.7989 96.6915 50.6369 95.8467 51.0193Z" fill="white"/>
<path d="M95.7039 53.4367C96.223 53.587 96.7721 53.6022 97.2988 53.4808C97.8255 53.3594 98.3123 53.1055 98.7127 52.7432C98.4262 52.5863 98.11 52.4908 97.7843 52.4629C97.4586 52.435 97.1307 52.4753 96.8216 52.5812C96.3729 52.7507 95.9841 53.0482 95.7039 53.4367Z" fill="#DE5753"/>
<path d="M104.269 50.4813C104.269 50.4813 103.034 45.5621 103.866 41.654C103.866 41.654 98.8426 39.1005 95.5999 41.9911C95.5999 41.9911 96.7436 39.0097 101.494 39.1199C106.244 39.2301 110.806 45.7112 104.269 50.4813Z" fill="#263238"/>
<path d="M106.511 51.2007C106.198 51.5555 105.817 51.8448 105.391 52.0517C104.965 52.2586 104.502 52.3791 104.028 52.4062C102.807 52.4581 102.553 51.2072 103.197 50.1313C103.769 49.1592 105.101 47.9667 106.186 48.4268C107.271 48.887 107.317 50.2934 106.511 51.2007Z" fill="#EBB376"/>
<path d="M99.4795 40.306C99.4795 40.306 99.8889 48.7768 105.205 47.7917C110.52 46.8065 106.979 37.8432 99.4795 40.306Z" fill="#263238"/>
<path opacity="0.1" d="M107.596 69.3932C106.296 72.543 105.302 75.2651 104.509 77.6696C102.196 73.6513 104.197 68.3173 104.197 68.3173C105.426 67.7664 106.576 68.2979 107.596 69.3932Z" fill="black"/>
<path d="M108.889 66.8202C109.234 67.8442 109.63 69.0238 110.066 70.1126C110.501 71.2014 110.943 72.3162 111.43 73.3532C111.918 74.3901 112.464 75.4595 113.016 76.4706C113.575 77.4511 114.187 78.4009 114.848 79.3158L114.459 78.9399C114.345 78.8461 114.203 78.7935 114.056 78.7908C114.056 78.7908 114.147 78.7908 114.316 78.7908C114.78 78.7231 115.235 78.5968 115.667 78.4149C116.78 77.9605 117.855 77.421 118.884 76.8011C119.976 76.153 121.055 75.5049 122.133 74.766C123.212 74.0272 124.297 73.3013 125.383 72.5689C125.666 72.3718 126.011 72.2845 126.354 72.3234C126.697 72.3623 127.014 72.5247 127.245 72.7801C127.476 73.0355 127.606 73.3664 127.61 73.7106C127.614 74.0548 127.492 74.3886 127.267 74.6494C126.351 75.7058 125.409 76.6585 124.427 77.6177C123.446 78.5769 122.4 79.4713 121.302 80.3398C120.164 81.254 118.943 82.0611 117.656 82.7508C116.895 83.1548 116.088 83.4639 115.251 83.6711C114.688 83.8049 114.107 83.8508 113.529 83.8072C112.717 83.7448 111.939 83.4525 111.287 82.9646C111.173 82.8794 111.068 82.7815 110.975 82.673L110.897 82.5887C109.984 81.5484 109.143 80.4461 108.382 79.2898C107.649 78.1613 106.978 76.9929 106.374 75.7901C105.783 74.5975 105.218 73.392 104.73 72.1671C104.49 71.519 104.256 70.9292 104.041 70.3006C103.827 69.6719 103.626 69.0691 103.424 68.3562C103.226 67.6457 103.315 66.8862 103.67 66.2394C104.025 65.5926 104.619 65.1094 105.325 64.8925C106.032 64.6756 106.796 64.7421 107.454 65.0778C108.112 65.4136 108.613 65.9922 108.85 66.6906L108.889 66.8202Z" fill="#E9B376"/>
<path d="M105.926 62.9639C109.76 64.2278 113.77 73.7291 113.77 73.7291C111.718 75.4451 109.495 76.9459 107.135 78.2075C107.135 78.2075 101.578 70.0867 102.534 66.4054C103.489 62.7241 105.926 62.9639 105.926 62.9639Z" fill="#407BFF"/>
<path opacity="0.7" d="M105.926 62.9639C109.76 64.2278 113.77 73.7291 113.77 73.7291C111.718 75.4451 109.495 76.9459 107.135 78.2075C107.135 78.2075 101.578 70.0867 102.534 66.4054C103.489 62.7241 105.926 62.9639 105.926 62.9639Z" fill="white"/>
<path d="M125.987 75.8872L130.536 73.3466L127.702 69.795C127.702 69.795 124.278 71.0912 124.284 74.1503L125.987 75.8872Z" fill="#EBB376"/>
<path d="M132.524 70.2292L129.775 68.0905L127.689 69.795L130.523 73.3466L132.524 70.2292Z" fill="#EBB376"/>
<path d="M106.686 77.8769L113.783 72.8411L114.465 74.4744L107.362 78.7908L106.686 77.8769Z" fill="#407BFF"/>
<path d="M92.9289 61.1686C89.9786 65.498 91.0639 73.3596 91.0639 73.3596C91.0639 73.3596 93.4423 67.6173 101.052 63.1778" stroke="#263238" stroke-width="0.5" stroke-linecap="round" stroke-linejoin="round"/>
<path d="M94.8784 63.612C96.659 64.0722 96.919 66.8526 96.919 66.8526C96.919 66.8526 101.598 64.2601 103.21 62.2769C102.7 61.9095 102.209 61.5158 101.741 61.0974C101.741 61.0974 96.0547 62.6917 94.8784 63.612Z" fill="#407BFF"/>
<path d="M93.1954 63.1324C93.1954 63.1324 91.5902 63.3722 90.7844 65.498C90.8169 61.4862 92.734 61.0196 92.734 61.0196C93.2614 60.8005 93.851 60.7821 94.3911 60.9677C93.9711 61.1344 93.6221 61.4414 93.404 61.8362C93.1859 62.2311 93.1121 62.6893 93.1954 63.1324Z" fill="#407BFF"/>
<path d="M92.5057 73.014L89.8856 72.8473C89.6671 72.8334 89.4787 72.9988 89.4648 73.2167L89.1677 77.8607C89.1538 78.0786 89.3196 78.2665 89.5381 78.2804L92.1582 78.4471C92.3767 78.461 92.5651 78.2956 92.579 78.0777L92.8761 73.4337C92.89 73.2158 92.7242 73.0279 92.5057 73.014Z" fill="white"/>
<path opacity="0.2" d="M92.317 73.7651L90.8418 73.6768L90.7248 75.6211L92.2 75.7094L92.317 73.7651Z" fill="black"/>
<path opacity="0.2" d="M92.1165 76.4474L89.8271 76.3018L89.8094 76.5799L92.0987 76.7255L92.1165 76.4474Z" fill="black"/>
<path opacity="0.2" d="M92.0745 77.1107L89.7852 76.9651L89.7674 77.2432L92.0567 77.3889L92.0745 77.1107Z" fill="black"/>
</g>
<defs>
<clipPath id="clip0_78_21840">
<rect width="252" height="190" fill="white"/>
</clipPath>
</defs>
</svg>
