<svg width="40" height="40" viewBox="0 0 40 40" fill="none" xmlns="http://www.w3.org/2000/svg">
<circle cx="20" cy="20" r="19.5" fill="white" stroke="#DFE0EB"/>
<path d="M28.9883 18.2047H28.2499V18.1666H19.9999V21.8333H25.1805C24.4247 23.9678 22.3938 25.5 19.9999 25.5C16.9625 25.5 14.4999 23.0374 14.4999 20C14.4999 16.9626 16.9625 14.5 19.9999 14.5C21.402 14.5 22.6775 15.0289 23.6487 15.8929L26.2415 13.3001C24.6043 11.7743 22.4144 10.8333 19.9999 10.8333C14.9376 10.8333 10.8333 14.9377 10.8333 20C10.8333 25.0623 14.9376 29.1666 19.9999 29.1666C25.0622 29.1666 29.1666 25.0623 29.1666 20C29.1666 19.3854 29.1033 18.7854 28.9883 18.2047Z" fill="#FFC107"/>
<path d="M11.8901 15.7334L14.9018 17.9421C15.7168 15.9245 17.6903 14.5 19.9999 14.5C21.4019 14.5 22.6775 15.0289 23.6487 15.8929L26.2415 13.3001C24.6043 11.7743 22.4144 10.8333 19.9999 10.8333C16.479 10.8333 13.4256 12.8211 11.8901 15.7334Z" fill="#FF3D00"/>
<path d="M20 29.1667C22.3677 29.1667 24.5191 28.2606 26.1458 26.787L23.3087 24.3863C22.3574 25.1097 21.1951 25.501 20 25.5C17.6157 25.5 15.5913 23.9797 14.8286 21.8581L11.8394 24.1612C13.3564 27.1298 16.4374 29.1667 20 29.1667Z" fill="#4CAF50"/>
<path d="M28.9884 18.2047H28.25V18.1667H20V21.8334H25.1805C24.819 22.8492 24.1678 23.7369 23.3073 24.3867L23.3087 24.3858L26.1458 26.7866C25.945 26.969 29.1667 24.5834 29.1667 20C29.1667 19.3854 29.1034 18.7854 28.9884 18.2047Z" fill="#1976D2"/>
</svg>
