<svg width="12" height="13" viewBox="0 0 12 13" fill="none" xmlns="http://www.w3.org/2000/svg">
<path d="M7.49963 11.9995V8.99947C7.49963 8.86686 7.44696 8.73969 7.35319 8.64592C7.25942 8.55215 7.13224 8.49947 6.99963 8.49947H4.99963C4.86703 8.49947 4.73985 8.55215 4.64608 8.64592C4.55231 8.73969 4.49963 8.86686 4.49963 8.99947V11.9995C4.49963 12.1321 4.44696 12.2593 4.35321 12.3531C4.25945 12.4468 4.13229 12.4995 3.9997 12.4995L1.00006 12.4999C0.934396 12.4999 0.869372 12.487 0.808702 12.4619C0.748032 12.4368 0.692905 12.3999 0.646469 12.3535C0.600033 12.3071 0.563197 12.252 0.538066 12.1913C0.512935 12.1306 0.5 12.0656 0.5 11.9999V6.22116C0.5 6.1515 0.514556 6.0826 0.542734 6.0189C0.570913 5.95519 0.612092 5.89808 0.663632 5.85121L5.66329 1.30529C5.75532 1.22161 5.87525 1.17524 5.99964 1.17523C6.12403 1.17523 6.24396 1.22159 6.336 1.30527L11.3363 5.85121C11.3879 5.89808 11.4291 5.95519 11.4573 6.0189C11.4854 6.08261 11.5 6.15151 11.5 6.22118V11.9999C11.5 12.0656 11.4871 12.1306 11.4619 12.1913C11.4368 12.252 11.4 12.3071 11.3535 12.3535C11.3071 12.3999 11.252 12.4368 11.1913 12.4619C11.1306 12.487 11.0656 12.4999 10.9999 12.4999L7.99957 12.4995C7.86697 12.4995 7.73981 12.4468 7.64606 12.3531C7.5523 12.2593 7.49963 12.1321 7.49963 11.9995V11.9995Z" stroke="#325EA5" stroke-linecap="round" stroke-linejoin="round"/>
</svg>
