<svg width="22" height="22" viewBox="0 0 22 22" fill="none" xmlns="http://www.w3.org/2000/svg">
<path d="M10.9995 13.75C11.9488 13.75 12.7183 12.9805 12.7183 12.0312C12.7183 11.082 11.9488 10.3125 10.9995 10.3125C10.0503 10.3125 9.28076 11.082 9.28076 12.0312C9.28076 12.9805 10.0503 13.75 10.9995 13.75Z" stroke="#747475" stroke-width="1.2" stroke-linecap="round" stroke-linejoin="round"/>
<path d="M10.9995 13.75V15.8125" stroke="#747475" stroke-width="1.2" stroke-linecap="round" stroke-linejoin="round"/>
<path d="M17.8745 7.5625H4.12451C3.74482 7.5625 3.43701 7.8703 3.43701 8.25V17.875C3.43701 18.2547 3.74482 18.5625 4.12451 18.5625H17.8745C18.2542 18.5625 18.562 18.2547 18.562 17.875V8.25C18.562 7.8703 18.2542 7.5625 17.8745 7.5625Z" stroke="#747475" stroke-width="1.2" stroke-linecap="round" stroke-linejoin="round"/>
<path d="M7.90576 7.5625V4.46875C7.90576 3.64824 8.23171 2.86133 8.8119 2.28114C9.39209 1.70095 10.179 1.375 10.9995 1.375C11.82 1.375 12.6069 1.70095 13.1871 2.28114C13.7673 2.86133 14.0933 3.64824 14.0933 4.46875V7.5625" stroke="#747475" stroke-width="1.2" stroke-linecap="round" stroke-linejoin="round"/>
</svg>
