<svg width="16" height="16" viewBox="0 0 16 16" fill="none" xmlns="http://www.w3.org/2000/svg">
<path d="M14.5 4H1.5C1.22386 4 1 4.22386 1 4.5V11.5C1 11.7761 1.22386 12 1.5 12H14.5C14.7761 12 15 11.7761 15 11.5V4.5C15 4.22386 14.7761 4 14.5 4Z" stroke="#A1A2A3" stroke-linecap="round" stroke-linejoin="round"/>
<path d="M8 10C9.10457 10 10 9.10457 10 8C10 6.89543 9.10457 6 8 6C6.89543 6 6 6.89543 6 8C6 9.10457 6.89543 10 8 10Z" stroke="#A1A2A3" stroke-linecap="round" stroke-linejoin="round"/>
<path d="M11 4L15 7.5" stroke="#A1A2A3" stroke-linecap="round" stroke-linejoin="round"/>
<path d="M11 12L15 8.5" stroke="#A1A2A3" stroke-linecap="round" stroke-linejoin="round"/>
<path d="M5 4L1 7.5" stroke="#A1A2A3" stroke-linecap="round" stroke-linejoin="round"/>
<path d="M5 12L1 8.5" stroke="#A1A2A3" stroke-linecap="round" stroke-linejoin="round"/>
</svg>
