<svg width="10" height="10" viewBox="0 0 10 10" fill="none" xmlns="http://www.w3.org/2000/svg">
<path d="M3.75 8.43751H1.875C1.79212 8.43751 1.71263 8.40459 1.65403 8.34599C1.59542 8.28738 1.5625 8.20789 1.5625 8.12501V6.37946C1.5625 6.33842 1.57058 6.29778 1.58629 6.25987C1.60199 6.22195 1.62501 6.1875 1.65403 6.15848L6.34153 1.47098C6.40013 1.41238 6.47962 1.37946 6.5625 1.37946C6.64538 1.37946 6.72487 1.41238 6.78347 1.47098L8.52903 3.21654C8.58763 3.27515 8.62056 3.35463 8.62056 3.43751C8.62056 3.52039 8.58763 3.59988 8.52903 3.65848L3.75 8.43751Z" stroke="#213660" stroke-width="0.6" stroke-linecap="round" stroke-linejoin="round"/>
<path d="M5.3125 2.5L7.5 4.6875" stroke="#213660" stroke-width="0.6" stroke-linecap="round" stroke-linejoin="round"/>
</svg>
