<svg width="20" height="20" viewBox="0 0 20 20" fill="none" xmlns="http://www.w3.org/2000/svg">
<path d="M15 14.375H5.35116C5.20479 14.375 5.06306 14.3236 4.95069 14.2298C4.83831 14.1361 4.76242 14.0058 4.73623 13.8618L2.65013 2.3882C2.62394 2.24419 2.54805 2.11394 2.43568 2.02016C2.3233 1.92637 2.18158 1.875 2.03521 1.875H0.625" stroke="white" stroke-width="1.2" stroke-linecap="round" stroke-linejoin="round"/>
<path d="M5.625 17.5C6.48794 17.5 7.1875 16.8004 7.1875 15.9375C7.1875 15.0746 6.48794 14.375 5.625 14.375C4.76206 14.375 4.0625 15.0746 4.0625 15.9375C4.0625 16.8004 4.76206 17.5 5.625 17.5Z" stroke="white" stroke-width="1.2" stroke-linecap="round" stroke-linejoin="round"/>
<path d="M15 17.5C15.8629 17.5 16.5625 16.8004 16.5625 15.9375C16.5625 15.0746 15.8629 14.375 15 14.375C14.1371 14.375 13.4375 15.0746 13.4375 15.9375C13.4375 16.8004 14.1371 17.5 15 17.5Z" stroke="white" stroke-width="1.2" stroke-linecap="round" stroke-linejoin="round"/>
<path d="M3.125 5H16.7511C16.8427 5 16.9331 5.02011 17.016 5.05891C17.0989 5.09771 17.1723 5.15425 17.231 5.22453C17.2896 5.29482 17.3321 5.37713 17.3555 5.46565C17.3788 5.55417 17.3824 5.64673 17.366 5.7368L16.3433 11.3618C16.3171 11.5058 16.2412 11.6361 16.1289 11.7298C16.0165 11.8236 15.8748 11.875 15.7284 11.875H4.375" stroke="white" stroke-width="1.2" stroke-linecap="round" stroke-linejoin="round"/>
</svg>
