<svg width="22" height="22" viewBox="0 0 22 22" fill="none" xmlns="http://www.w3.org/2000/svg">
<g clip-path="url(#clip0_78_24670)">
<path d="M13.0625 18.5625H18.5625C19.2421 18.5625 19.8196 18.4092 20.2991 18.1421L13.0625 13.8253V18.5625Z" fill="#2E3192"/>
<path d="M21.8831 15.8847C21.9615 15.5351 22.0014 15.1649 22.0014 14.7809V13.0621H17.1511L21.8817 15.8847" fill="#2E3192"/>
<path d="M0.120292 6.10468C0.0388248 6.4704 -0.00152966 6.84408 -2.02119e-05 7.21877V8.93752H4.86885L0.120292 6.10468Z" fill="#2E3192"/>
<path d="M8.93746 3.4375H3.43746C2.76267 3.4375 2.18896 3.58875 1.71149 3.85206L8.93746 8.16269V3.4375Z" fill="#2E3192"/>
<path d="M1.73352 18.159C2.20652 18.4147 2.77268 18.5625 3.43749 18.5625H8.93749V13.8614L1.73352 18.159Z" fill="#2E3192"/>
<path d="M0 13.0625V14.7812C0 15.1769 0.0419375 15.5581 0.124781 15.9167L4.90944 13.0625H0Z" fill="#2E3192"/>
<path d="M20.3208 3.86891C19.8375 3.59459 19.2521 3.4375 18.5625 3.4375H13.0625V8.19878L20.3208 3.86891Z" fill="#2E3192"/>
<path d="M22 8.93749V7.21874C22 6.84268 21.9611 6.48003 21.8858 6.13696L17.1916 8.93749H22Z" fill="#2E3192"/>
<path d="M17.1916 8.9375L21.8859 6.13697C21.6707 5.15247 21.1468 4.33744 20.3208 3.86891L13.0625 8.19878V3.4375H12.375V9.625H22V8.9375H17.1916Z" fill="#E6E7E8"/>
<path d="M0 12.375V13.0625H4.90944L0.124781 15.9167C0.352 16.8981 0.891688 17.7038 1.73353 18.1589L8.9375 13.8614V18.5625H9.625V12.375H0Z" fill="#E6E7E8"/>
<path d="M22 12.375H12.375V18.5625H13.0625V13.8253L20.2991 18.1424C21.1313 17.6791 21.6617 16.8685 21.8817 15.8854L17.1511 13.0625H22V12.375Z" fill="#E6E7E8"/>
<path d="M8.9375 3.4375V8.16269L1.71153 3.85206C0.876219 4.31269 0.342375 5.12188 0.119969 6.10466L4.86888 8.9375H0V9.625H9.625V3.4375H8.9375Z" fill="#E6E7E8"/>
<path d="M12.375 9.625V3.4375H9.625V9.625H0V12.375H9.625V18.5625H12.375V12.375H22V9.625H12.375Z" fill="#BE1E2D"/>
<path d="M7.54116 8.93752L0.648976 4.82318C0.500819 5.04318 0.381882 5.28518 0.283569 5.54299L5.9716 8.93752H7.54013" fill="#BE1E2D"/>
<path d="M21.6872 16.5309L15.9077 13.0625H14.3072L21.2898 17.2628C21.4517 17.0365 21.5852 16.7912 21.6872 16.5323" fill="#BE1E2D"/>
<path d="M20.8721 4.2594L13.0518 8.93749L14.6396 8.93852L21.3878 4.89843C21.2372 4.62446 21.0784 4.44777 20.8721 4.2594Z" fill="#BE1E2D"/>
<path d="M0.623169 17.1445C0.777799 17.38 0.963885 17.5933 1.17626 17.7784L8.95911 13.0625H7.39058L0.623169 17.1445Z" fill="#BE1E2D"/>
</g>
<defs>
<clipPath id="clip0_78_24670">
<rect width="22" height="22" fill="white"/>
</clipPath>
</defs>
</svg>
