<svg width="38" height="38" viewBox="0 0 38 38" fill="none" xmlns="http://www.w3.org/2000/svg">
<circle cx="19" cy="19" r="19" fill="#A29BFE"/>
<path d="M24.6246 16.1875H13.3746C13.0639 16.1875 12.8121 16.4393 12.8121 16.75V24.625C12.8121 24.9357 13.0639 25.1875 13.3746 25.1875H24.6246C24.9352 25.1875 25.1871 24.9357 25.1871 24.625V16.75C25.1871 16.4393 24.9352 16.1875 24.6246 16.1875Z" stroke="white" stroke-linecap="round" stroke-linejoin="round"/>
<path d="M16.4683 16.1875V13.6562C16.4683 12.9849 16.735 12.3411 17.2097 11.8664C17.6844 11.3917 18.3282 11.125 18.9996 11.125C19.6709 11.125 20.3147 11.3917 20.7894 11.8664C21.2641 12.3411 21.5308 12.9849 21.5308 13.6562V16.1875" stroke="white" stroke-linecap="round" stroke-linejoin="round"/>
</svg>
