<svg width="38" height="38" viewBox="0 0 38 38" fill="none" xmlns="http://www.w3.org/2000/svg">
<circle cx="19" cy="19" r="19" fill="#FF7675"/>
<path d="M13.9518 17.3125C13.9508 16.6454 14.082 15.9847 14.3376 15.3685C14.5932 14.7523 14.9682 14.1927 15.4411 13.7222C15.9139 13.2516 16.4753 12.8792 17.0927 12.6266C17.7101 12.374 18.3715 12.246 19.0386 12.2502C21.8222 12.2709 24.0488 14.5846 24.0488 17.3761V17.875C24.0488 20.3933 24.5757 21.8546 25.0397 22.6533C25.0897 22.7387 25.1163 22.8357 25.1168 22.9346C25.1173 23.0335 25.0918 23.1308 25.0427 23.2167C24.9936 23.3025 24.9228 23.3739 24.8373 23.4237C24.7518 23.4734 24.6547 23.4998 24.5558 23.5H13.4442C13.3453 23.4998 13.2482 23.4734 13.1627 23.4237C13.0772 23.3739 13.0063 23.3025 12.9573 23.2166C12.9082 23.1307 12.8826 23.0334 12.8832 22.9345C12.8837 22.8356 12.9104 22.7385 12.9604 22.6532C13.4247 21.8545 13.9518 20.3932 13.9518 17.875L13.9518 17.3125Z" stroke="white" stroke-linecap="round" stroke-linejoin="round"/>
<path d="M16.75 23.5V24.0625C16.75 24.6592 16.9871 25.2315 17.409 25.6535C17.831 26.0754 18.4033 26.3125 19 26.3125C19.5967 26.3125 20.169 26.0754 20.591 25.6535C21.0129 25.2315 21.25 24.6592 21.25 24.0625V23.5" stroke="white" stroke-linecap="round" stroke-linejoin="round"/>
</svg>
